# xmcd
#
# Track frame offsets:
#	183
#	12655
#	25325
#	40365
#	54415
#	68225
#	82663
#	95830
#	107068
#	124083
#	137708
#	150723
#	162755
#	176745
#	189643
#	203255
#	216323
#	230285
#	243938
#	256735
#	272803
#	284173
#	295990
#	310273
#
# Disc length: 4356 seconds
#
# Revision: 0
# Processed by: cddbd v1.4PL0 Copyright (c) Steve Scherf et al.
# Submitted via: dBpowerAMP V4.0
#
DISCID=5d110218
DTITLE=Freddie Fender - Favorite Ballads
DYEAR=1991
DGENRE=Country
TTITLE0=Waisted Days and Waisted Nights
TTITLE1=Release Me
TTITLE2=Welcome to My World
TTITLE3=Talk to Me
TTITLE4=I Can't Stop Loving You
TTITLE5=Since I Met You Baby
TTITLE6=It's All In The Game
TTITLE7=Please Help Me I'm Falling
TTITLE8=Secret Love
TTITLE9=Tell It Like It Is
TTITLE10=Pledging My Love
TTITLE11=Before The Next Teardrop Falls
TTITLE12=Green Green Grass of Home
TTITLE13=You Lose a Good Thing
TTITLE14=Crying Time
TTITLE15=She Thinks I Still Care
TTITLE16=Help Me Make It Through The Night
TTITLE17=I'm So Lonesome I Could Cry
TTITLE18=Vaya Con Dios
TTITLE19=Together Again
TTITLE20=Make The World Go Away
TTITLE21=You Win Again
TTITLE22=Funny How Time Slips Away
TTITLE23=Then You Can Tell Me Goodbye
EXTD=
EXTT0=
EXTT1=
EXTT2=
EXTT3=
EXTT4=
EXTT5=
EXTT6=
EXTT7=
EXTT8=
EXTT9=
EXTT10=
EXTT11=
EXTT12=
EXTT13=
EXTT14=
EXTT15=
EXTT16=
EXTT17=
EXTT18=
EXTT19=
EXTT20=
EXTT21=
EXTT22=
EXTT23=
PLAYORDER=
